<?xml version="1.0" standalone="no"?>
<!DOCTYPE svg PUBLIC "-//W3C//DTD SVG 20010904//EN"
 "http://www.w3.org/TR/2001/REC-SVG-20010904/DTD/svg10.dtd">
<svg version="1.0" xmlns="http://www.w3.org/2000/svg"
 width="1028.000000pt" height="1028.000000pt" viewBox="0 0 1028.000000 1028.000000"
 preserveAspectRatio="xMidYMid meet">
<metadata>
Created by potrace 1.14, written by Peter Selinger 2001-2017
</metadata>
<g transform="translate(0.000000,1028.000000) scale(0.100000,-0.100000)"
fill="#000000" stroke="none">
<path d="M1195 10273 c-510 -63 -952 -421 -1121 -908 -30 -84 -44 -142 -64
-260 -5 -28 -8 -1811 -7 -3995 2 -3754 3 -3949 20 -4020 104 -434 365 -768
742 -950 152 -73 275 -109 435 -127 81 -10 7769 -10 7865 -1 100 10 295 54
330 76 6 4 15 7 22 8 24 4 195 94 255 135 317 216 534 556 594 934 3 22 7
1797 8 3945 2 3898 2 3941 -28 4103 -6 37 -35 137 -45 162 -5 11 -22 52 -39
92 -174 413 -580 726 -1032 798 -70 11 -768 13 -3995 12 -2151 0 -3923 -2
-3940 -4z"/>
</g>
</svg>
